# xmcd
#
# Track frame offsets: 
#        150
#        12338
#        23040
#        40369
#        51814
#        64228
#        77565
#        93284
#        109116
#        123582
#        139530
#        153680
#        169136
#        183246
#        197153
#        211258
#        224241
#        236867
#        248311
#        260980
#        274180
#        286709
#        306309
#
# Disc length: 4370 seconds
#
# Revision: 2
# Processed by: cddbd v1.5.2PL0 Copyright (c) Steve Scherf et al.
# Submitted via: ExactAudioCopyFreeDBPlugin 1.0
#
DISCID=55111017
DTITLE=Various Artist - Holland Dozier Holland:  The Complete 45s Col
DTITLE=lection (Invictus, Hot Wax, Music Merchant), 1969-1977 [Harmles
DTITLE=s box set]
DYEAR=2014
DGENRE=Soul
TTITLE0=Brenda Holloway - Some Quiet Place (To Rest My Mind)
TTITLE1=Just Brothers - Sliced Tomatoes
TTITLE2=The Jones Girls - You're the Only Bargain I've Got
TTITLE3=Brotherly Love - Bingo
TTITLE4=Warlock - The Judgement Day
TTITLE5=Sweet Rock - 1984
TTITLE6=Brotherly Love - I Don't See Me in Your Eyes Anymore
TTITLE7=Just Brothers - You've Got the Love to Make Me Over
TTITLE8=Eloise Laws - You Made Me an Offer I Can't Refuse
TTITLE9=The Smith Connection - (I've Been a Winner, I've Been a Loser)
TTITLE9=I've Been in Love
TTITLE10=Eloise Laws - Stay with Me
TTITLE11=The Smith Connection - The Day You Leave
TTITLE12=The Smith Connection - I'm Bugging Your Phone (Part 2)
TTITLE13=The Chairmen of the Board - Where There is Faith, There is Ho
TTITLE13=pe
TTITLE14=The Honey Cone - If I Can't Fly (alternate version)
TTITLE15=The Barrino Brothers - I Want to Give You All the Love You've
TTITLE15=Been Giving Me
TTITLE16=The Honey Cone - Come Back
TTITLE17=Eloise Laws - The Easiest Way to Fall
TTITLE18=The Jones Girls - Don't Be Sorry, Be Careful
TTITLE19=Eloise Laws - I Think You Need Love
TTITLE20=Satisfaction Unlimited - Why Do You Keep on Asking Those Fool
TTITLE20=ish Questions
TTITLE21=The Chairmen of the Board - Give Me Just a Little More Time (
TTITLE21=2014 Tom Moulton Remix)
TTITLE22=The Chairmen of the Board - You've Got Me Dangling on a Strin
TTITLE22=g (2014 Tom Moulton Remix)
EXTD=
EXTT0=
EXTT1=
EXTT2=
EXTT3=
EXTT4=
EXTT5=
EXTT6=
EXTT7=
EXTT8=
EXTT9=
EXTT10=
EXTT11=
EXTT12=
EXTT13=
EXTT14=
EXTT15=
EXTT16=
EXTT17=
EXTT18=
EXTT19=
EXTT20=
EXTT21=
EXTT22=
PLAYORDER=
